<svg width="801" height="200" viewBox="0 0 801 200" fill="none" xmlns="http://www.w3.org/2000/svg">
<rect width="92.3077" height="200" fill="white"/>
<rect x="107.692" width="92.3077" height="38.4615" fill="white"/>
<rect x="107.692" y="53.8461" width="92.3077" height="38.4615" fill="white"/>
<path d="M292.04 46.76H372.36V67.88H317.16V94.28H365V113.8H317.16V161H292.04V46.76ZM404.644 119.72C404.644 123.027 404.964 126.28 405.604 129.48C406.244 132.573 407.31 135.4 408.804 137.96C410.404 140.413 412.484 142.387 415.044 143.88C417.604 145.373 420.804 146.12 424.644 146.12C428.484 146.12 431.684 145.373 434.244 143.88C436.91 142.387 438.99 140.413 440.484 137.96C442.084 135.4 443.204 132.573 443.844 129.48C444.484 126.28 444.804 123.027 444.804 119.72C444.804 116.413 444.484 113.16 443.844 109.96C443.204 106.76 442.084 103.933 440.484 101.48C438.99 99.0267 436.91 97.0533 434.244 95.56C431.684 93.96 428.484 93.16 424.644 93.16C420.804 93.16 417.604 93.96 415.044 95.56C412.484 97.0533 410.404 99.0267 408.804 101.48C407.31 103.933 406.244 106.76 405.604 109.96C404.964 113.16 404.644 116.413 404.644 119.72ZM381.924 119.72C381.924 113.107 382.937 107.133 384.964 101.8C386.99 96.36 389.87 91.7733 393.604 88.04C397.337 84.2 401.817 81.2667 407.044 79.24C412.27 77.1067 418.137 76.04 424.644 76.04C431.15 76.04 437.017 77.1067 442.244 79.24C447.577 81.2667 452.11 84.2 455.844 88.04C459.577 91.7733 462.457 96.36 464.484 101.8C466.51 107.133 467.524 113.107 467.524 119.72C467.524 126.333 466.51 132.307 464.484 137.64C462.457 142.973 459.577 147.56 455.844 151.4C452.11 155.133 447.577 158.013 442.244 160.04C437.017 162.067 431.15 163.08 424.644 163.08C418.137 163.08 412.27 162.067 407.044 160.04C401.817 158.013 397.337 155.133 393.604 151.4C389.87 147.56 386.99 142.973 384.964 137.64C382.937 132.307 381.924 126.333 381.924 119.72ZM482.936 46.76H505.656V161H482.936V46.76ZM582.266 119.4C582.266 115.987 581.946 112.733 581.306 109.64C580.666 106.44 579.546 103.667 577.946 101.32C576.453 98.8667 574.48 96.8933 572.026 95.4C569.573 93.9067 566.48 93.16 562.746 93.16C559.013 93.16 555.866 93.9067 553.306 95.4C550.746 96.8933 548.666 98.8667 547.066 101.32C545.573 103.773 544.453 106.6 543.706 109.8C543.066 112.893 542.746 116.147 542.746 119.56C542.746 122.76 543.12 125.96 543.866 129.16C544.613 132.36 545.786 135.24 547.386 137.8C549.093 140.253 551.173 142.28 553.626 143.88C556.186 145.373 559.226 146.12 562.746 146.12C566.48 146.12 569.573 145.373 572.026 143.88C574.586 142.387 576.613 140.413 578.106 137.96C579.6 135.4 580.666 132.52 581.306 129.32C581.946 126.12 582.266 122.813 582.266 119.4ZM582.586 150.44H582.266C579.6 154.92 576.08 158.173 571.706 160.2C567.44 162.12 562.586 163.08 557.146 163.08C550.96 163.08 545.52 161.907 540.826 159.56C536.133 157.107 532.24 153.853 529.146 149.8C526.16 145.64 523.866 140.893 522.266 135.56C520.773 130.227 520.026 124.68 520.026 118.92C520.026 113.373 520.773 108.04 522.266 102.92C523.866 97.6933 526.16 93.1067 529.146 89.16C532.24 85.2133 536.08 82.0667 540.666 79.72C545.253 77.2667 550.586 76.04 556.666 76.04C561.573 76.04 566.213 77.1067 570.586 79.24C575.066 81.2667 578.586 84.3067 581.146 88.36H581.466V46.76H604.186V161H582.586V150.44ZM623.439 46.76H646.159V108.04L674.799 78.28H701.679L670.479 108.68L705.199 161H677.679L654.959 124.04L646.159 132.52V161H623.439V46.76ZM736.594 65.48H713.874V46.76H736.594V65.48ZM713.874 78.28H736.594V161H713.874V78.28ZM783.284 78.28H799.924V93.48H783.284V134.44C783.284 138.28 783.924 140.84 785.204 142.12C786.484 143.4 789.044 144.04 792.884 144.04C794.164 144.04 795.39 143.987 796.564 143.88C797.737 143.773 798.857 143.613 799.924 143.4V161C798.004 161.32 795.87 161.533 793.524 161.64C791.177 161.747 788.884 161.8 786.644 161.8C783.124 161.8 779.764 161.533 776.564 161C773.47 160.573 770.697 159.667 768.244 158.28C765.897 156.893 764.03 154.92 762.644 152.36C761.257 149.8 760.564 146.44 760.564 142.28V93.48H746.804V78.28H760.564V53.48H783.284V78.28Z" fill="white"/>
</svg>
